<?xml version="1.0" encoding="UTF-8"?>
<svg id="_레이어_2" data-name="레이어 2" xmlns="http://www.w3.org/2000/svg" viewBox="0 0 408 408">
  <defs>
    <style>
      .cls-1 {
        fill: none;
      }

      .cls-1, .cls-2, .cls-3, .cls-4, .cls-5 {
        stroke-width: 0px;
      }

      .cls-6 {
        isolation: isolate;
      }

      .cls-3 {
        fill: #f4d451;
      }

      .cls-4 {
        fill: #57f253;
      }

      .cls-5 {
        fill: #0071bc;
      }
    </style>
  </defs>
  <g id="_레이어_1-2" data-name="레이어 1">
    <g>
      <rect class="cls-1" width="408" height="408"/>
      <g>
        <g>
          <path class="cls-3" d="M359.23,127.95l-19.72,232.27c-.26,3.06-3.16,5.19-6.16,4.53l-62.92-13.87c-2.62-.58-4.34-3.09-3.93-5.74l4.64-30c.41-2.65-1.31-5.16-3.93-5.74l-71.68-15.8c-1.86-.41-3.8.26-5.01,1.73l-24.5,29.7c-1.21,1.47-3.15,2.14-5.01,1.73l-59.69-13.16c-3.84-.85-5.3-5.55-2.63-8.42l182.66-196.35c1.23-1.32,3.06-1.89,4.81-1.5l69.09,15.23c2.49.55,4.18,2.85,3.97,5.39ZM274.93,257.69c2.87.63,5.68-1.3,6.12-4.2l9.46-62.64c.77-5.08-5.63-7.96-8.92-4.02l-49.96,59.76c-.5.6-.19,1.51.57,1.68l42.73,9.42Z"/>
          <path class="cls-2" d="M334.46,369.27c-.68,0-1.36-.07-2.04-.22l-62.92-13.87c-4.87-1.07-8.09-5.78-7.33-10.71l4.64-30c.06-.36-.18-.69-.53-.77l-71.68-15.8c-.25-.06-.51.03-.67.23l-24.5,29.7c-2.28,2.76-5.86,3.99-9.35,3.22l-59.69-13.16c-3.36-.74-5.98-3.15-7.01-6.44-1.03-3.29-.24-6.76,2.11-9.28l182.66-196.35c2.28-2.45,5.72-3.52,8.98-2.8l69.09,15.23c4.62,1.02,7.81,5.34,7.41,10.06l-19.72,232.27c-.23,2.72-1.63,5.21-3.83,6.83-1.64,1.21-3.62,1.85-5.62,1.85ZM194.44,289.08c.68,0,1.37.07,2.06.23l71.68,15.8c4.87,1.07,8.09,5.78,7.33,10.71l-4.64,30c-.06.36.18.69.53.77l62.92,13.87c.25.06.44-.03.55-.12.11-.08.25-.24.28-.49l19.72-232.27c.03-.34-.2-.65-.53-.73l-69.09-15.23c-.24-.05-.48.03-.65.2l-182.66,196.35c-.07.07-.27.29-.15.67s.41.44.51.46l59.69,13.16c.25.06.51-.03.67-.23l24.5-29.7c1.83-2.22,4.5-3.45,7.29-3.45ZM276.01,262.2c-.68,0-1.36-.07-2.03-.22h0l-42.73-9.42c-1.87-.41-3.36-1.74-3.97-3.55-.62-1.81-.26-3.77.97-5.24l49.96-59.77c2.76-3.3,7.25-4.33,11.17-2.56,3.92,1.77,6.12,5.81,5.48,10.06l-9.46,62.64c-.39,2.59-1.85,4.92-4.01,6.4-1.59,1.09-3.47,1.66-5.38,1.66ZM275.87,253.39c.24.05.42-.03.53-.1.11-.08.25-.22.29-.46l9.46-62.64c.03-.18.08-.51-.39-.72-.47-.21-.69.05-.8.18l-46.41,55.52,37.32,8.23Z"/>
        </g>
        <g class="cls-6">
          <g>
            <path class="cls-4" d="M334.92,96.22l-19.72,232.27c-.26,3.06-3.16,5.19-6.16,4.53l-62.92-13.87c-2.62-.58-4.34-3.09-3.93-5.74l4.64-30c.41-2.65-1.31-5.16-3.93-5.74l-71.68-15.8c-1.86-.41-3.8.26-5.01,1.73l-24.5,29.7c-1.21,1.47-3.15,2.14-5.01,1.73l-59.69-13.16c-3.84-.85-5.3-5.55-2.63-8.42l182.66-196.35c1.23-1.32,3.06-1.89,4.81-1.5l69.09,15.23c2.49.55,4.18,2.85,3.97,5.39ZM250.61,225.96c2.87.63,5.68-1.3,6.12-4.2l9.46-62.64c.77-5.08-5.63-7.96-8.92-4.02l-49.96,59.76c-.5.6-.19,1.51.57,1.68l42.73,9.42Z"/>
            <path class="cls-2" d="M310.14,337.54c-.68,0-1.36-.07-2.04-.22l-62.92-13.87c-4.87-1.07-8.09-5.78-7.33-10.71l4.64-30c.05-.35-.18-.69-.53-.77l-71.68-15.8c-.25-.05-.51.03-.67.23l-24.5,29.7c-2.28,2.76-5.86,4-9.35,3.23l-59.7-13.16c-3.36-.74-5.98-3.15-7.01-6.44-1.03-3.29-.24-6.76,2.11-9.28L253.82,74.11c2.28-2.45,5.72-3.52,8.98-2.8l69.09,15.23c4.62,1.02,7.81,5.34,7.41,10.06h0s-19.72,232.27-19.72,232.27c-.23,2.72-1.63,5.21-3.83,6.83-1.64,1.21-3.62,1.85-5.62,1.85ZM170.12,257.35c.68,0,1.37.07,2.06.23l71.68,15.8c4.87,1.07,8.09,5.78,7.33,10.71l-4.64,30c-.05.36.18.69.53.77l62.92,13.87c.25.05.44-.03.55-.12s.25-.24.28-.49l19.72-232.27c.03-.34-.2-.65-.53-.72l-69.09-15.23c-.23-.05-.48.03-.65.2l-182.66,196.35c-.07.07-.27.29-.15.67.12.38.41.44.51.46l59.69,13.16c.25.06.51-.03.67-.23l24.5-29.7c1.83-2.22,4.5-3.45,7.29-3.45ZM251.69,230.47c-.68,0-1.36-.07-2.03-.22l-42.73-9.42c-1.87-.41-3.36-1.74-3.97-3.55-.62-1.81-.25-3.77.97-5.24l49.96-59.76c2.76-3.3,7.24-4.33,11.17-2.56,3.92,1.77,6.12,5.81,5.48,10.06l-9.46,62.64c-.39,2.59-1.85,4.92-4.01,6.4-1.59,1.09-3.47,1.66-5.38,1.66ZM214.23,213.43l37.33,8.23c.24.05.42-.03.53-.1.11-.08.25-.22.29-.46l9.46-62.64c.03-.18.08-.51-.4-.73-.47-.21-.69.05-.8.18l-46.41,55.52Z"/>
          </g>
        </g>
        <path class="cls-2" d="M235.05,291.72l58.1-36.98c1.4-.89,3.79-2.26,3.97-3.91l1.17-25.13c.21-1.99-1.2-3.78-3.18-4.04l-55.58-7.36c-1.9-.25-3.68,1-4.09,2.88l-8.78,40.64c-.1.48-.11.97-.02,1.45l8.42,32.46Z"/>
        <g class="cls-6">
          <g>
            <path class="cls-5" d="M247.57,241.45c-.75-.47-1.32.23-1.35,1.11-1.17,35.27-13.33,45.42-13.33,45.42-.88.72-2.13.78-3.24.54l-7.79-1.72c-2.62-.58-4.34-3.09-3.93-5.74l4.64-30c.41-2.65-1.31-5.16-3.93-5.74l-71.68-15.8c-1.86-.41-3.8.26-5.01,1.73l-24.5,29.7c-1.21,1.47-3.15,2.14-5.01,1.73l-59.69-13.16c-3.84-.85-5.3-5.55-2.63-8.42L232.78,44.75c1.23-1.32,3.06-1.89,4.81-1.5l69.09,15.23c2.49.55,4.18,2.85,3.97,5.39l-15.45,182.02c-.21,2.49-2.42,4.12-4.91,4.16-22.21.36-38.05-5.69-42.72-8.6ZM226.34,193.6c2.87.63,5.68-1.3,6.12-4.2l9.46-62.64c.77-5.08-5.63-7.96-8.92-4.02l-49.96,59.76c-.5.6-.19,1.51.57,1.68l42.73,9.42Z"/>
            <path class="cls-2" d="M230.77,293.04c-.67,0-1.37-.08-2.06-.23l-7.79-1.72c-4.87-1.07-8.09-5.78-7.33-10.71l4.64-30c.06-.36-.18-.69-.53-.77l-71.68-15.8c-.25-.05-.51.03-.67.23l-24.5,29.7c-2.28,2.76-5.86,3.99-9.35,3.22l-59.69-13.16c-3.36-.74-5.98-3.15-7.01-6.44-1.03-3.29-.24-6.76,2.11-9.28L229.56,41.75c2.28-2.45,5.72-3.52,8.98-2.8l69.09,15.23c4.62,1.02,7.81,5.34,7.41,10.06l-15.45,182.02c-.39,4.59-4.35,8.11-9.22,8.19-17.25.29-31.66-3.28-39.99-6.72-.85,13-3.28,23.95-7.26,32.61-3.5,7.63-7.01,10.7-7.4,11.02-1.35,1.11-3.08,1.69-4.94,1.69ZM145.86,225c.68,0,1.37.07,2.06.23l71.68,15.8c4.87,1.07,8.09,5.78,7.33,10.71l-4.64,30c-.06.36.18.69.53.77l7.65,1.69c2.03-2.26,10.42-13.28,11.36-41.78.07-2.12,1.18-4,2.9-4.92,1.63-.87,3.56-.79,5.17.22h0c3.49,2.17,18.38,8.31,40.32,7.94.33,0,.53-.12.61-.17l15.45-181.98c.03-.34-.2-.65-.53-.73l-69.09-15.23c-.24-.05-.48.03-.65.2L53.34,244.09c-.07.07-.27.29-.15.67.12.38.41.44.5.46l59.69,13.16c.25.06.51-.03.67-.23l24.5-29.7c1.83-2.22,4.5-3.45,7.29-3.45ZM227.43,198.12c-.68,0-1.36-.07-2.03-.22h0l-42.73-9.42c-1.87-.41-3.36-1.74-3.97-3.55s-.25-3.77.97-5.24l49.96-59.76c2.76-3.3,7.25-4.33,11.17-2.56,3.92,1.77,6.12,5.81,5.48,10.06l-9.46,62.64c-.39,2.59-1.85,4.92-4.01,6.4-1.59,1.09-3.47,1.67-5.38,1.67ZM227.29,189.31c.24.05.42-.03.53-.1.11-.08.25-.22.29-.46l9.46-62.64c.03-.18.08-.51-.39-.72-.47-.21-.69.05-.81.18l-46.41,55.52,37.32,8.23Z"/>
          </g>
        </g>
      </g>
    </g>
  </g>
</svg>